<svg width="32" height="32" xmlns="http://www.w3.org/2000/svg">
 <!-- Created with Method Draw - http://github.com/duopixel/Method-Draw/ -->

 <g>
  <title>background</title>
  <rect x="-1" y="-1" width="34" height="34" id="canvas_background" fill="none"/>
  <g id="canvasGrid" display="none">
   <rect id="svg_2" width="100%" height="100%" x="0" y="0" stroke-width="0" fill="url(#gridpattern)"/>
  </g>
 </g>
 <g>
  <title>Layer 1</title>
  <path stroke-width="0" fill="#1a53ff" d="m15.91204,8.85135c0.77839,0.00098 1.522,0.13575 2.22623,0.36091l-0.55735,0.96395l3.95628,0l-0.98932,-1.71336l-0.98857,-1.71285l-0.52039,0.90256c-0.97529,-0.35657 -2.0267,-0.55612 -3.12617,-0.55612c-5.06081,0 -9.16275,4.1022 -9.16275,9.16299c0,2.10039 0.71437,4.0302 1.90325,5.57636l1.39324,-1.06973c-0.96153,-1.24952 -1.53965,-2.80873 -1.54279,-4.50613c0.007,-4.09158 3.31727,-7.40231 7.40834,-7.40859l0,0l0,0.00001zm7.26047,1.83365l-1.39324,1.07024c0.96128,1.24904 1.53941,2.80728 1.54206,4.50517c-0.00701,4.09155 -3.31727,7.40181 -7.40858,7.40856c-0.725,-0.00094 -1.41861,-0.11883 -2.07984,-0.31598l0.52449,-0.90694l-3.95627,0l0.9886,1.71242l0.9893,1.71478l0.55155,-0.95717c0.93543,0.32565 1.93657,0.50733 2.98217,0.5078c5.06154,-0.00094 9.16278,-4.10315 9.16397,-9.16394c-0.00119,-2.10039 -0.71607,-4.02973 -1.90421,-5.57494l0,0z" id="svg_1" stroke="#1a53ff"/>
 </g>
</svg>